<svg height="512" viewBox="0 0 512 512" width="512" xmlns="http://www.w3.org/2000/svg"><g><g><rect fill="#006df0" height="480" rx="20" width="256" x="128" y="16"/><path d="m448 152v100a12 12 0 0 1 -12 12h-136a12 12 0 0 1 -12-12v-100z" fill="#e0e0e2"/><path d="m295 48h-79l-8-32h96z" fill="#787680"/><circle cx="144" cy="336" fill="#e0e0e2" r="80"/><circle cx="144" cy="336" fill="#78b9eb" r="56"/><path d="m448 132v20h-160v-20a12 12 0 0 1 12-12h136a12 12 0 0 1 12 12z" fill="#d80027"/></g><g><path d="m436 112h-20a8 8 0 0 0 -16 0h-8v-76a28.031 28.031 0 0 0 -28-28h-216a28.031 28.031 0 0 0 -28 28v215.33a88.008 88.008 0 0 0 0 169.34v55.33a28.031 28.031 0 0 0 28 28h216a28.031 28.031 0 0 0 28-28v-204h44a20.02 20.02 0 0 0 20-20v-120a20.02 20.02 0 0 0 -20-20zm-142.56-88-4.5 16h-66.69l-4-16zm-221.44 312a72 72 0 1 1 72 72 72.083 72.083 0 0 1 -72-72zm304 140a12.01 12.01 0 0 1 -12 12h-216a12.01 12.01 0 0 1 -12-12v-52.37c2.64.24 5.3.37 8 .37a88 88 0 0 0 0-176c-2.7 0-5.36.13-8 .37v-212.37a12.01 12.01 0 0 1 12-12h53.75l6.49 25.94a8 8 0 0 0 7.76 6.06h79a8 8 0 0 0 7.7-5.83l7.36-26.17h53.94a12.01 12.01 0 0 1 12 12v76a8 8 0 0 0 -16 0h-24a8 8 0 0 0 -16 0h-20a20.02 20.02 0 0 0 -20 20v120a20.02 20.02 0 0 0 20 20h76zm64-224a4 4 0 0 1 -4 4h-136a4 4 0 0 1 -4-4v-92h144zm0-108h-144v-12a4 4 0 0 1 4-4h20a8 8 0 0 0 16 0h24a8 8 0 0 0 16 0h24a8 8 0 0 0 16 0h20a4 4 0 0 1 4 4z"/><path d="m280 464h-48a8 8 0 0 0 0 16h48a8 8 0 0 0 0-16z"/><path d="m208 336a64 64 0 1 0 -64 64 64.072 64.072 0 0 0 64-64zm-112 0a48 48 0 1 1 48 48 48.053 48.053 0 0 1 -48-48z"/><path d="m159.994 352a8 8 0 0 0 3.584-15.157l-11.578-5.787v-19.056a8 8 0 0 0 -16 0v24a8 8 0 0 0 4.422 7.155l16 8a7.973 7.973 0 0 0 3.572.845z"/></g></g></svg>