<svg id="Layer_1" enable-background="new 0 0 512 512" height="512" viewBox="0 0 512 512" width="512" xmlns="http://www.w3.org/2000/svg"><g><g><g><g><g><path d="m387.792 282.582-132.851-132.852c-.368-.368-.758-.699-1.145-1.035-34.485-32.187-88.53-31.494-122.146 2.122-32.333 32.333-34.217 83.573-5.673 118.123l-.301.3 137.729 137.73c8.587 8.587 22.51 8.587 31.097 0 8.579-8.579 8.586-22.484.022-31.073 8.589 8.564 22.494 8.558 31.073-.022 8.587-8.587 8.587-22.51 0-31.098 8.587 8.587 22.51 8.587 31.098 0 8.587-8.587 8.587-22.51 0-31.098 8.587 8.587 22.51 8.587 31.098 0 8.587-8.587 8.587-22.51-.001-31.097z" fill="#ffe1d1"/><g fill="#ffd9c4"><path d="m321.367 216.156-66.426-66.426h-.001z"/><path d="m387.792 282.582-25.709-25.709c8.587 8.587 8.587 22.51 0 31.097-8.587 8.587-22.51 8.587-31.098 0 8.587 8.587 8.588 22.51 0 31.097-8.587 8.587-22.51 8.587-31.098 0 8.587 8.587 8.588 22.51 0 31.098-8.579 8.58-22.484 8.586-31.073.022 8.564 8.589 8.558 22.494-.022 31.073-8.587 8.587-22.51 8.587-31.097 0l25.709 25.709c8.587 8.587 22.51 8.587 31.097 0 8.58-8.58 8.586-22.484.022-31.073 8.589 8.564 22.494 8.558 31.073-.022 8.587-8.587 8.587-22.51 0-31.098 8.587 8.587 22.51 8.587 31.098 0 8.587-8.587 8.587-22.51 0-31.097 8.587 8.587 22.51 8.587 31.098 0 8.588-8.587 8.588-22.51 0-31.097z"/></g></g><g fill="#f2c4ac"><g><path d="m125.26 313.559c-8.587-8.587-8.587-22.51 0-31.098l26.62-26.62c8.587-8.587 22.51-8.587 31.097 0 8.587 8.587 8.587 22.51 0 31.097l-26.62 26.62c-8.587 8.588-22.51 8.588-31.097.001z"/><path d="m156.357 344.656c-8.587-8.587-8.587-22.51 0-31.098l26.62-26.62c8.587-8.587 22.51-8.587 31.097 0 8.587 8.587 8.587 22.51 0 31.097l-26.62 26.62c-8.587 8.589-22.51 8.589-31.097.001z"/><path d="m187.455 375.754c-8.587-8.587-8.587-22.51 0-31.098l26.62-26.62c8.587-8.587 22.51-8.587 31.097 0 8.587 8.587 8.587 22.51 0 31.097l-26.62 26.62c-8.587 8.588-22.51 8.588-31.097.001z"/><path d="m218.552 406.851c-8.587-8.587-8.587-22.51 0-31.098l26.62-26.62c8.587-8.587 22.51-8.587 31.097 0 8.587 8.587 8.587 22.51 0 31.097l-26.62 26.62c-8.587 8.589-22.51 8.589-31.097.001z"/></g><path d="m380.344 150.829c-34.346-34.346-90.032-34.346-124.378 0-37.596 37.596-11.574 11.574-49.17 49.17-8.587 8.587-8.587 22.51 0 31.097s22.51 8.587 31.097 0l49.196-49.196 93.255 93.307c34.346-34.346 34.346-90.032 0-124.378z"/></g></g></g></g><g><path d="m437.02 74.98c-48.353-48.351-112.64-74.98-181.02-74.98s-132.667 26.629-181.02 74.98c-48.351 48.352-74.98 112.64-74.98 181.02 0 67.236 25.882 130.76 72.879 178.868 6.56 6.712 17.587-3.463 10.729-10.482-44.242-45.289-68.608-105.09-68.608-168.386 0-64.374 25.068-124.894 70.587-170.413s106.039-70.587 170.413-70.587c64.373 0 124.894 25.068 170.412 70.587 45.52 45.519 70.588 106.04 70.588 170.413s-25.068 124.894-70.588 170.412c-45.518 45.52-106.039 70.588-170.412 70.588-52.078 0-101.658-16.351-143.381-47.284-7.537-5.594-16.816 6.205-8.934 12.049 44.327 32.864 96.996 50.235 152.315 50.235 68.38 0 132.667-26.629 181.02-74.98 48.351-48.353 74.98-112.64 74.98-181.02s-26.629-132.668-74.98-181.02z"/><path d="m385.647 145.525c-18.028-18.027-41.997-27.956-67.492-27.956-23.067 0-44.885 8.129-62.184 23.029-37.348-32.119-94.817-29.891-129.624 4.915-35.212 35.213-36.451 92.161-4.875 130.13-12.398 11.442-13.723 31.022-1.515 43.218 5.908 5.909 14.176 9.047 22.51 8.588-.955 17.331 13.751 32.052 31.098 31.098-.955 17.32 13.753 32.056 31.099 31.082-1.564 28.119 33.256 40.779 51.797 21.019 4.804 4.608 10.487 8.95 18.68 10.014 17.989 2.335 34.405-12.975 33.236-31.051 17.168.765 32.164-13.855 31.105-31.098 4.671.199 9.469-.735 14.009-2.854 11.162-5.206 17.804-16.208 17.093-28.185 7.572.422 15.283-2.029 21.271-7.322 17.145-15.152 10.606-33.212-.635-45.716 14.486-17.175 22.384-38.688 22.384-61.418 0-25.496-9.929-49.464-27.957-67.493zm-244.839 166.974c-12.582 0-19.187-15.791-10.245-24.734l26.62-26.62c13.182-13.182 33.695 7.288 20.491 20.49l-26.621 26.621c-2.736 2.736-6.375 4.243-10.245 4.243zm31.098 31.098c-12.582 0-19.189-15.791-10.246-24.734l26.621-26.62c13.182-13.182 33.704 7.279 20.491 20.49l-26.62 26.621c-2.737 2.736-6.376 4.243-10.246 4.243zm20.852 26.853c-5.539-5.538-5.55-14.94 0-20.49l26.62-26.62c13.182-13.182 33.694 7.286 20.491 20.49l-26.62 26.62c-5.649 5.651-14.842 5.651-20.491 0zm31.097 31.098c-5.546-5.566-5.582-14.909 0-20.49l26.62-26.621c13.198-13.195 33.702 7.284 20.49 20.491l-26.62 26.62c-5.648 5.65-14.84 5.65-20.49 0zm69.484-8.395c-.453 3.785-2.418 7.204-5.533 9.628-7.001 5.448-14.862 2.827-20.733-2.746 6.515-6.515 15.185-13.154 19.62-21.363 4.107 3.796 7.354 8.58 6.646 14.481zm89.935-85.308c-4.131 4.131-14.273 7.524-21.28.527-16.672-16.658-33.534-33.535-50.272-50.273-6.638-6.634-17.546 3.667-10.607 10.607 16.757 16.757 33.535 33.491 50.271 50.27 13.038 13.075-8.075 32.908-20.491 20.491-16.757-16.757-33.513-33.514-50.27-50.271-6.638-6.634-17.546 3.667-10.607 10.607 16.738 16.738 33.627 33.587 50.271 50.271 13.024 13.056-7.393 33.488-20.464 20.514l-9.885-9.885c-2.019-15.054-15.762-26.304-30.891-25.459.967-17.307-13.77-32.049-31.083-31.082.962-17.315-13.763-32.075-31.113-31.097.457-8.1-2.397-16.353-8.571-22.528-11.498-11.495-30.206-11.497-41.704.001l-14.315 14.315c-22.627-34.757-26.84-77.199 4.692-108.732 28.946-28.946 76.652-31.221 108.168-5.055l-43.629 43.629c-26.902 26.904 14.898 68.511 41.704 41.705l43.891-43.892 35.617 35.637c6.635 6.639 17.545-3.663 10.609-10.604 0 0-33.839-35.362-41.531-41.511-2.959-2.367-7.323-2.107-9.998.565l-49.195 49.196c-13.194 13.199-33.7-7.282-20.491-20.49l49.17-49.17c15.194-15.195 35.397-23.563 56.886-23.563s41.69 8.368 56.886 23.563c15.194 15.194 23.563 35.396 23.563 56.885 0 18.855-6.448 36.716-18.292 51.076l-18.856-18.392c-6.635-6.639-17.545 3.663-10.609 10.604 6.941 6.545 27.195 26.036 27.195 26.036 5.274 5.337 15.624 15.827 5.231 25.505z"/></g></g></svg>